<svg width="60" height="54" viewBox="0 0 60 54" fill="none" xmlns="http://www.w3.org/2000/svg">
<path d="M59.989 18C59.89 16.289 57.855 14.952 53.785 13.932C53.922 13.632 53.999 13.32 54 12.996V6H53.983C53.625 0.172 29.743 0 27 0C24.257 0 0.375 0.172 0.017 6H0V6.13V12.999C0.005 14.899 2.457 16.386 6.105 17.493C6.055 17.659 6.025 17.828 6.015 18H6V18.13V24.987C2.07 25.999 0.107 27.317 0.01 29H0V29.13V35.999C0.003 37.322 1.196 38.444 3.148 39.379C3.074 39.582 3.028 39.789 3.015 40.001H3V40.131V47C3.008 50.326 10.497 52.391 18.818 53.355C18.879 53.367 18.935 53.392 19 53.392C19.019 53.392 19.035 53.382 19.054 53.381C20.658 53.562 22.288 53.703 23.901 53.804C23.935 53.808 23.965 53.824 24 53.824C24.019 53.824 24.034 53.814 24.052 53.813C26.1 53.937 28.115 54 30 54C31.885 54 33.9 53.937 35.948 53.812C35.966 53.813 35.982 53.823 36 53.823C36.035 53.823 36.065 53.806 36.099 53.803C37.712 53.702 39.342 53.562 40.946 53.38C40.965 53.38 40.981 53.39 41 53.39C41.065 53.39 41.121 53.365 41.182 53.353C49.503 52.389 56.991 50.323 57 46.996V40H56.984C56.914 38.774 55.869 37.751 53.805 36.896C53.931 36.607 54 36.307 54 35.996V29.46C57.59 28.356 59.995 26.879 60 24.996V18H59.989ZM51.892 36.321L51.551 36.62C51.026 37.083 50.151 37.55 49 38V33.232C50.189 32.818 51.201 32.359 52 31.856V35.994C52 36.097 51.962 36.207 51.892 36.321ZM29.526 40.968C29.38 40.972 29.233 40.974 29.086 40.977C28.729 40.984 28.363 40.986 28.001 40.989V35.994C28.276 35.991 28.551 35.987 28.826 35.982C28.879 35.981 28.932 35.98 28.985 35.979C29.992 35.96 30.999 35.929 32.001 35.883V40.876C31.787 40.887 31.572 40.897 31.355 40.906C30.753 40.933 30.145 40.953 29.526 40.968ZM25.159 40.982C24.701 40.974 24.245 40.963 23.792 40.949C23.736 40.947 23.68 40.945 23.624 40.943C23.079 40.925 22.538 40.902 22.001 40.876V35.884C23.003 35.931 24.01 35.962 25.017 35.98C25.07 35.981 25.123 35.982 25.175 35.983C25.45 35.988 25.725 35.992 26 35.995V40.993C25.806 40.991 25.612 40.991 25.419 40.988C25.331 40.986 25.246 40.983 25.159 40.982ZM7.097 38.702C7.064 38.692 7.033 38.683 7 38.674V33.843C7.934 34.095 8.938 34.325 10 34.534V39.415C9.082 39.22 8.235 39.015 7.464 38.805C7.342 38.77 7.216 38.737 7.097 38.702ZM28.175 46.983C28.45 46.988 28.725 46.992 29 46.995V51.994C27.618 51.981 26.284 51.941 25 51.878V46.885C26.002 46.932 27.009 46.963 28.016 46.981C28.069 46.981 28.122 46.982 28.175 46.983ZM31.984 46.98C32.991 46.961 33.998 46.93 35 46.884V51.877C33.716 51.94 32.382 51.98 31 51.993V46.994C31.275 46.991 31.55 46.987 31.825 46.982C31.878 46.982 31.931 46.981 31.984 46.98ZM40 46.528V51.494C39.039 51.595 38.039 51.684 37 51.757V46.77C38.014 46.704 39.016 46.623 40 46.528ZM42 46.312C43.031 46.188 44.032 46.047 45 45.89V50.8C44.058 50.966 43.057 51.119 42 51.258V46.312ZM47 45.533C48.062 45.324 49.066 45.094 50 44.842V49.673C49.109 49.93 48.106 50.179 47 50.414V45.533ZM13 45.533V50.414C11.894 50.179 10.891 49.93 10 49.673V44.842C10.934 45.094 11.938 45.325 13 45.533ZM15 45.891C15.968 46.048 16.969 46.189 18 46.313V51.259C16.943 51.12 15.942 50.967 15 50.801V45.891ZM20 46.528C20.984 46.623 21.986 46.704 23 46.771V51.758C21.961 51.685 20.961 51.596 20 51.495V46.528ZM17.519 40.548C17.417 40.538 17.316 40.527 17.215 40.517C17.143 40.51 17.072 40.501 17 40.494V35.529C17.984 35.624 18.986 35.705 20 35.772V40.755C19.16 40.695 18.33 40.627 17.519 40.548ZM15 35.312V40.258C13.943 40.119 12.942 39.966 12 39.8V34.89C12.968 35.047 13.969 35.189 15 35.312ZM34.666 40.708C34.446 40.725 34.224 40.742 34 40.758V35.771C35.014 35.704 36.016 35.624 37 35.528V40.494C36.382 40.559 35.75 40.62 35.101 40.673C34.956 40.686 34.811 40.697 34.666 40.708ZM39 40.258V35.312C40.031 35.188 41.032 35.047 42 34.89V39.8C41.058 39.966 40.057 40.12 39 40.258ZM44 34.533C45.062 34.324 46.066 34.094 47 33.842V38.673C46.109 38.93 45.106 39.179 44 39.414V34.533ZM30.325 29.965C29.573 29.946 28.838 29.917 28.116 29.882C28.077 29.88 28.038 29.878 28 29.877V24.884C29.002 24.931 30.009 24.962 31.016 24.98C31.069 24.981 31.122 24.982 31.174 24.983C31.449 24.988 31.724 24.992 31.999 24.995V29.988C31.512 29.983 31.021 29.981 30.546 29.97C30.473 29.968 30.398 29.967 30.325 29.965ZM7 15.674V10.843C7.934 11.095 8.938 11.325 10 11.534V16.415C9.877 16.389 9.75 16.363 9.63 16.337C9.098 16.22 8.579 16.098 8.083 15.969C7.705 15.872 7.346 15.773 7 15.674ZM25.175 12.983C25.45 12.988 25.725 12.992 26 12.995V17.988C24.654 17.975 23.316 17.94 22 17.874V12.885C23.002 12.932 24.009 12.963 25.016 12.981C25.069 12.981 25.122 12.982 25.175 12.983ZM28.984 12.98C29.991 12.961 30.998 12.93 32 12.884V17.873C31.83 17.881 31.667 17.893 31.496 17.901C31.482 17.902 31.468 17.902 31.453 17.903C30.782 17.933 30.098 17.955 29.405 17.971C29.297 17.974 29.189 17.975 29.081 17.978C28.725 17.985 28.361 17.986 28 17.99V12.995C28.275 12.992 28.55 12.988 28.825 12.983C28.878 12.982 28.931 12.981 28.984 12.98ZM51.771 13.482L51.743 13.476L51.379 13.759C50.851 14.17 50.04 14.586 49 14.988V10.231C50.189 9.817 51.201 9.358 52 8.855V12.993C52 13.145 51.92 13.309 51.771 13.482ZM39 17.252V12.312C40.031 12.188 41.032 12.047 42 11.89V16.792C41.052 16.96 40.054 17.114 39 17.252ZM44 16.407V11.534C45.062 11.325 46.066 11.095 47 10.843V15.663C46.104 15.924 45.095 16.173 44 16.407ZM37 12.528V17.488C36.034 17.59 35.034 17.679 34 17.753V12.771C35.014 12.704 36.016 12.623 37 12.528ZM17 17.49V12.528C17.984 12.623 18.986 12.704 20 12.771V17.749C18.982 17.676 17.978 17.593 17 17.49ZM15 12.312V17.253C14.802 17.227 14.596 17.206 14.4 17.179C14.272 17.161 14.15 17.142 14.024 17.124C13.446 17.041 12.881 16.952 12.327 16.859C12.216 16.84 12.109 16.82 12 16.801V11.891C12.968 12.047 13.969 12.189 15 12.312ZM25.752 29.739C25.617 29.729 25.481 29.719 25.347 29.709C24.707 29.659 24.082 29.604 23.472 29.543C23.341 29.53 23.21 29.516 23.08 29.503C23.053 29.5 23.027 29.496 23 29.494V24.528C23.984 24.623 24.986 24.704 26 24.771V29.755C25.919 29.749 25.833 29.745 25.752 29.739ZM19.145 28.992C18.749 28.929 18.377 28.861 18 28.795V23.891C18.968 24.048 19.969 24.189 21 24.313V29.259C20.388 29.178 19.789 29.094 19.214 29.004C19.191 28.999 19.168 28.995 19.145 28.992ZM16 23.533V28.406C14.895 28.169 13.893 27.917 13 27.655V22.842C13.934 23.094 14.938 23.325 16 23.533ZM11 22.231V26.982C9.428 26.375 8.414 25.755 8.084 25.203L8.017 25.091C8.011 25.06 8.001 25.027 8 24.996V20.855C8.799 21.358 9.811 21.817 11 22.231ZM34.984 24.98C35.991 24.961 36.998 24.93 38 24.884V29.872C36.686 29.937 35.35 29.973 34 29.987V24.995C34.275 24.992 34.55 24.988 34.825 24.983C34.878 24.982 34.931 24.981 34.984 24.98ZM47.907 28.817C47.468 28.893 47.025 28.968 46.57 29.037C46.309 29.077 46.042 29.115 45.774 29.153C45.521 29.189 45.258 29.22 45.001 29.253V24.312C46.032 24.188 47.033 24.047 48.001 23.89V28.8C47.969 28.806 47.938 28.812 47.907 28.817ZM41.136 29.671C40.763 29.702 40.378 29.722 40 29.749V24.771C41.014 24.704 42.016 24.624 43 24.528V29.489C42.419 29.55 41.839 29.611 41.242 29.661C41.206 29.664 41.172 29.668 41.136 29.671ZM52.564 27.796C52.066 27.935 51.539 28.065 51.001 28.192C50.752 28.25 50.498 28.308 50.238 28.364C50.161 28.381 50.079 28.396 50.001 28.413V23.534C51.063 23.325 52.067 23.095 53.001 22.843V27.674C52.857 27.714 52.712 27.755 52.564 27.796ZM57.989 18.065C57.897 18.744 56.358 19.647 53.611 20.496C50.073 21.589 44.537 22.59 37.521 22.9C37.162 22.915 36.804 22.93 36.438 22.942C36.139 22.952 35.839 22.961 35.534 22.969C34.706 22.987 33.866 23 33 23C32.134 23 31.294 22.987 30.466 22.968C30.162 22.961 29.862 22.951 29.562 22.941C29.195 22.93 28.837 22.914 28.479 22.899C21.463 22.589 15.926 21.588 12.389 20.495C9.664 19.653 8.128 18.757 8.014 18.081C8.019 18.062 8.019 18.046 8.031 18.022C8.099 18.039 8.175 18.053 8.244 18.07C8.635 18.163 9.036 18.253 9.444 18.339C11.431 18.767 13.633 19.118 15.979 19.386C15.987 19.386 15.993 19.39 16 19.39C16.002 19.39 16.004 19.389 16.005 19.389C17.603 19.571 19.261 19.714 20.963 19.815C20.976 19.815 20.987 19.822 21 19.822C21.007 19.822 21.012 19.818 21.019 19.818C22.244 19.89 23.485 19.943 24.741 19.971C25.51 19.99 26.265 20 27 20C27.525 20 28.063 19.994 28.606 19.984C35.872 19.872 42.606 19.008 47.292 17.669C47.508 17.608 47.719 17.545 47.927 17.482C48.054 17.443 48.184 17.405 48.307 17.366C48.669 17.25 49.016 17.131 49.351 17.007C49.409 16.985 49.464 16.963 49.522 16.941C49.805 16.834 50.077 16.723 50.337 16.61C50.412 16.577 50.489 16.545 50.562 16.512C50.839 16.387 51.107 16.259 51.355 16.126C51.467 16.067 51.564 16.006 51.669 15.946C51.789 15.877 51.909 15.807 52.02 15.736C52.083 15.696 52.158 15.658 52.218 15.618C56.695 16.589 57.875 17.651 57.989 18.065ZM27 2C43.489 2 51.829 4.596 51.985 6.086C51.864 6.762 50.329 7.655 47.611 8.495C44.073 9.588 38.537 10.589 31.521 10.899C31.162 10.914 30.804 10.929 30.438 10.941C30.139 10.951 29.839 10.96 29.534 10.968C28.706 10.987 27.866 11 27 11C26.134 11 25.294 10.987 24.466 10.968C24.162 10.961 23.862 10.951 23.562 10.941C23.195 10.93 22.837 10.914 22.479 10.899C15.463 10.589 9.926 9.588 6.389 8.495C3.67 7.655 2.136 6.762 2.015 6.086C2.171 4.596 10.511 2 27 2ZM2 12.996V8.855C2.799 9.358 3.811 9.817 5 10.231V15.019C3.055 14.29 2.002 13.559 2 12.996ZM6.844 26.835C6.859 26.851 6.882 26.865 6.897 26.881C8.266 28.263 11.101 29.349 14.63 30.159C14.711 30.178 14.797 30.196 14.879 30.215C15.138 30.273 15.401 30.33 15.667 30.385C18.908 31.075 22.777 31.574 26.992 31.821C26.995 31.821 26.997 31.822 26.999 31.822C27.001 31.822 27.002 31.821 27.003 31.821C28.357 31.9 29.742 31.955 31.156 31.979C31.782 31.992 32.398 32 33 32C33.69 32 34.398 31.992 35.118 31.975C36.426 31.948 37.715 31.894 38.986 31.82C38.991 31.82 38.995 31.823 39 31.823C39.009 31.823 39.016 31.818 39.025 31.818C43.251 31.569 47.216 31.065 50.569 30.34C49.843 30.72 48.849 31.113 47.611 31.496C43.876 32.65 37.911 33.701 30.33 33.945C30.105 33.952 29.883 33.96 29.655 33.966C29.41 33.972 29.161 33.976 28.912 33.981C28.283 33.991 27.65 34 27 34C26.134 34 25.294 33.987 24.466 33.968C24.162 33.961 23.862 33.951 23.562 33.941C23.195 33.93 22.837 33.914 22.479 33.899C15.463 33.589 9.926 32.588 6.389 31.495C3.639 30.645 2.1 29.741 2.011 29.062C2.122 28.686 3.133 27.745 6.844 26.835ZM2 35.996V31.855C2.799 32.358 3.811 32.817 5 33.231V38L4.429 37.778L4.417 37.79C2.847 37.139 2.002 36.5 2 35.996ZM5 46.996V42.855C5.799 43.358 6.811 43.817 8 44.231V49.019C6.055 48.29 5.002 47.559 5 46.996ZM52 49.019V44.232C53.189 43.818 54.201 43.359 55 42.856V46.994C54.999 47.557 53.945 48.289 52 49.019ZM54.987 40.077C54.878 40.754 53.342 41.652 50.611 42.496C47.073 43.589 41.537 44.59 34.521 44.9C34.162 44.915 33.804 44.93 33.438 44.942C33.139 44.952 32.839 44.961 32.534 44.969C31.706 44.987 30.866 45 30 45C29.134 45 28.293 44.987 27.464 44.968C27.163 44.961 26.866 44.951 26.569 44.941C26.2 44.929 25.84 44.914 25.479 44.899C18.463 44.589 12.927 43.588 9.389 42.495C6.744 41.678 5.216 40.81 5.024 40.14C5.322 40.244 5.631 40.345 5.948 40.444C5.98 40.454 6.012 40.464 6.044 40.473C6.314 40.556 6.59 40.636 6.873 40.714C6.98 40.744 7.088 40.774 7.197 40.803C7.357 40.846 7.521 40.887 7.685 40.929C11.327 41.862 15.976 42.523 20.995 42.82C20.997 42.82 20.998 42.821 21 42.821C21.001 42.821 21.002 42.82 21.003 42.82C22.553 42.912 24.136 42.969 25.736 42.988C26.162 42.996 26.585 43 27 43C27.551 43 28.115 42.993 28.686 42.983C30.145 42.959 31.585 42.905 32.993 42.821C32.996 42.821 32.998 42.823 33.001 42.823C33.006 42.823 33.009 42.82 33.014 42.82C34.729 42.717 36.389 42.57 37.984 42.387C37.99 42.387 37.995 42.39 38.001 42.39C38.023 42.39 38.041 42.379 38.063 42.377C39.839 42.172 41.523 41.92 43.086 41.627C43.408 41.568 43.725 41.507 44.039 41.444C44.109 41.43 44.179 41.416 44.249 41.401C47.202 40.795 49.758 40.01 51.512 39.037C51.608 38.985 51.698 38.931 51.789 38.878C51.9 38.812 52.006 38.745 52.109 38.677C52.205 38.615 52.316 38.555 52.404 38.492C54.378 39.196 54.922 39.826 54.987 40.077ZM55 27.019V22.232C56.189 21.818 57.201 21.359 58 20.856V24.994C57.999 25.557 56.945 26.289 55 27.019Z" fill="white"/>
</svg>
